<svg width="405" height="97" viewBox="0 0 405 97" fill="none" xmlns="http://www.w3.org/2000/svg">
<path d="M0 57.8844V38.6528L38.6116 0H49.0857L19.3451 57.8844H0Z" fill="#F56300"/>
<path d="M57.9146 38.5982V57.8298L19.3029 96.4825H8.82885L38.5694 38.5982H57.9146Z" fill="#F56300"/>
<path d="M90.9393 55.2414H98.079C98.2921 56.8399 98.9493 58.243 100.05 59.4507C101.187 60.6584 102.679 61.5997 104.526 62.2746C106.373 62.914 108.504 63.2337 110.92 63.2337C114.508 63.2337 117.349 62.6831 119.445 61.582C121.541 60.4453 122.589 58.9179 122.589 56.9997C122.589 55.4368 121.985 54.2646 120.777 53.4831C119.569 52.7017 117.385 52.1156 114.223 51.7248L105.592 50.6059C100.761 49.9665 97.2443 48.7766 95.042 47.036C92.8752 45.26 91.7918 42.7557 91.7918 39.5233C91.7918 37.0724 92.52 34.9588 93.9763 33.1828C95.4682 31.3712 97.564 29.9859 100.264 29.0268C102.963 28.0322 106.125 27.5349 109.748 27.5349C113.335 27.5349 116.515 28.0677 119.285 29.1334C122.056 30.199 124.258 31.6909 125.892 33.609C127.562 35.4917 128.467 37.7117 128.609 40.2693H121.47C121.292 38.8484 120.688 37.6229 119.658 36.5928C118.664 35.5627 117.314 34.7635 115.609 34.1951C113.904 33.5913 111.897 33.2894 109.588 33.2894C106.32 33.2894 103.709 33.8222 101.755 34.8878C99.8018 35.9534 98.825 37.4098 98.825 39.2569C98.825 40.6778 99.3933 41.7789 100.53 42.5604C101.702 43.3063 103.727 43.8747 106.604 44.2654L115.342 45.4909C118.93 45.9882 121.754 46.6631 123.814 47.5156C125.91 48.3326 127.402 49.4515 128.29 50.8723C129.178 52.2577 129.622 54.0515 129.622 56.2538C129.622 58.8113 128.84 61.0491 127.277 62.9673C125.714 64.8854 123.512 66.3773 120.67 67.443C117.864 68.4731 114.579 68.9881 110.813 68.9881C106.977 68.9881 103.585 68.4198 100.637 67.2831C97.7238 66.1109 95.4149 64.4947 93.7099 62.4345C92.0049 60.3742 91.0813 57.9766 90.9393 55.2414Z" fill="#F56300"/>
<path d="M152.238 31.5311H159.271V68.2422H152.238V31.5311ZM135.72 28.2809H175.788V34.4616H135.72V28.2809Z" fill="#F56300"/>
<path d="M190.291 46.2901H206.542C208.886 46.2901 210.733 45.7573 212.083 44.6916C213.468 43.626 214.161 42.1696 214.161 40.3225C214.161 38.4399 213.468 36.9836 212.083 35.9534C210.733 34.8878 208.886 34.355 206.542 34.355H189.278L192.422 30.4121V68.2422H185.389V28.2809H207.181C209.987 28.2809 212.438 28.7959 214.534 29.826C216.665 30.8206 218.317 32.2237 219.489 34.0353C220.697 35.8114 221.301 37.9071 221.301 40.3225C221.301 42.6669 220.697 44.7449 219.489 46.5565C218.317 48.3326 216.665 49.7357 214.534 50.7658C212.438 51.7604 209.987 52.2577 207.181 52.2577H190.291V46.2901ZM198.176 49.5403H206.435L222.313 68.2422H213.894L198.176 49.5403Z" fill="#F56300"/>
<path d="M254.905 68.9881C250.358 68.9881 246.362 68.1179 242.916 66.3773C239.471 64.6368 236.789 62.2213 234.871 59.131C232.953 56.0051 231.994 52.382 231.994 48.2615C231.994 44.1411 232.953 40.5357 234.871 37.4453C236.789 34.3195 239.471 31.8863 242.916 30.1457C246.362 28.4052 250.358 27.5349 254.905 27.5349C259.451 27.5349 263.448 28.4052 266.893 30.1457C270.339 31.8863 273.021 34.3195 274.939 37.4453C276.857 40.5357 277.816 44.1411 277.816 48.2615C277.816 52.382 276.857 56.0051 274.939 59.131C273.021 62.2213 270.339 64.6368 266.893 66.3773C263.448 68.1179 259.451 68.9881 254.905 68.9881ZM254.905 62.7009C258.137 62.7009 260.926 62.1148 263.27 60.9426C265.614 59.7704 267.426 58.1009 268.705 55.9341C270.019 53.7673 270.676 51.2098 270.676 48.2615C270.676 45.3133 270.019 42.7557 268.705 40.589C267.426 38.4222 265.614 36.7527 263.27 35.5805C260.926 34.4083 258.137 33.8222 254.905 33.8222C251.708 33.8222 248.919 34.4083 246.539 35.5805C244.195 36.7527 242.366 38.4222 241.051 40.589C239.773 42.7557 239.133 45.3133 239.133 48.2615C239.133 51.2098 239.773 53.7673 241.051 55.9341C242.366 58.1009 244.195 59.7704 246.539 60.9426C248.919 62.1148 251.708 62.7009 254.905 62.7009Z" fill="#F56300"/>
<path d="M290.51 28.2809H297.543V68.2422H290.51V28.2809Z" fill="#F56300"/>
<path d="M312.345 68.2422V28.2809H319.378V62.3279L317.247 60.9959L343.994 28.2809H351.614L318.632 68.2422H312.345ZM331.367 48.155L336.322 43.3063L352.2 68.2422H344.154L331.367 48.155Z" fill="#F56300"/>
<path d="M366.801 59.0777V53.27H394.72V59.0777H366.801ZM385.343 28.2809L404.524 68.2422H397.011L379.588 30.945H382.306L364.882 68.2422H357.37L376.551 28.2809H385.343Z" fill="#F56300"/>
</svg>
